<svg version="1.1" width="88" height="17" xmlns="http://www.w3.org/2000/svg" xmlns:xlink="http://www.w3.org/1999/xlink" x="0px" y="0px" viewBox="0 0 448.2 83.9" style="enable-background:new 0 0 448.2 83.9;" xml:space="preserve">
<g>
	<path class="st0" d="M448.1,17.1l-2.8,0L448.1,17.1c0-3.6,0-7.3,0-10.9v-6H429v14.4c0,9.4,0,18.9,0,28.3c0,0.5,0,1.1-0.1,1.6
		c-0.7,6.3-3.4,11.2-8.2,15.2c-3.8,3.2-8.2,4.9-13,5c-5.3,0.2-10.7,0.1-15.5,0.1l-2.2,0c-5.8,0-10.9-2-15.1-5.9
		c-4.8-4.4-7.3-10-7.3-16.6c-0.1-8.4,0-16.9,0-25.2c0-3.6,0-7.2,0-10.8V0.1h-19l0,41.9c0,5-1.5,9.5-4.3,13.4
		c-4.4,5.9-10.2,9-17.2,9.2c-3.3,0.1-6.9,0.1-10,0.1l-0.3,0c-1.9,0-3.8,0-5.8,0c-3.3,0-6.2-0.4-8.7-1.2c-5.3-1.8-9.5-5.3-12.3-10.2
		c-2-3.4-2.9-7.4-2.9-12.1c0.1-8.2,0-16.6,0-24.7l0-16.5h-19l0,17.3l0,25.8c0,4.7,0.9,9.4,2.7,14c3.6,9.2,9.7,16.3,18.2,21.2
		c5.4,3.1,10.2,4.7,15.1,5c3.9,0.3,8.1,0.4,13.7,0.4l2,0c4,0,8.1,0,12.3-0.5c10.2-1.3,19-6.2,26-14.6c7.7,9.3,17.7,14.4,29.8,15
		c2.5,0.1,5.2,0.2,8.5,0.2c2.4,0,4.8,0,7.2-0.1l0.2,0c1.5,0,3,0,4.5-0.1c2.1,0,4.2-0.2,6.3-0.7c9.7-2,17.8-6.8,24.1-14.4
		c6.2-7.5,9.4-16.2,9.5-26C448.2,34.1,448.2,25.5,448.1,17.1z"></path>
	<path class="st0" d="M259.7,40.6c0-8-2.3-15.3-6.8-21.9C244.5,6.4,232.8,0.1,218.1,0c-17.4-0.1-35.9-0.1-59.9,0
		c-3,0-5.9,0.3-8.6,0.9c-12.3,2.9-21.4,9.7-27.1,20.2c-8.4,15.6-7.4,31.4,2.8,45.7c7.8,10.9,19.1,16.7,32.6,16.8
		c8.9,0.1,18.4,0.1,30.2,0.1c7.3,0,14.6,0,21.8,0l5.5,0c1.6,0,5.6,0,9.6,0c0.4,0,0.7,0,1,0l5-0.2V64.8l-26.2,0
		c-15.4,0-30.7,0-46.1,0c-3.1,0-5.8-0.5-8.2-1.5c-7.3-3.1-11.9-8.4-13.7-15.8c-1.1-4.5-0.9-8.9,0.6-13.3c3.1-9,11.7-15.1,21.4-15.1
		c8.3,0,16.6,0,24.9,0h9.2c8.4,0,16.8,0,25.2,0c3.1,0,6.1,0.6,8.9,1.8c8.3,3.5,13.7,11.6,13.7,20.7v42.2h18.7l0.3-4.8
		c0-0.3,0-0.6,0-0.9l0-10.3C259.7,58.7,259.7,49.6,259.7,40.6L259.7,40.6z"></path>
	<path class="st0" d="M40.9,0.1c-2.9,0-5.9,0.4-9,1.1c-8.4,2-15.6,6.3-21.4,12.8C3.7,21.7,0.2,30.5,0.1,40.2C0,49.1,0,58.2,0,67.1
		c0,3.7,0,7.4,0,11.1c0,0.5,0.1,0.9,0.1,1.2l0.6,4.4h18.4l0-16.9c0-8.5,0-17.1,0-25.6c0-5.3,1.8-10.1,5.3-14.1
		c4.5-5.2,10.4-7.9,17.3-7.9c13.6,0,27.3,0,40.9,0l30.6,0V0L90.1,0C73.9,0,57.3,0,40.9,0.1z"></path>
</g>
</svg>